<svg width="31" height="30" viewBox="0 0 31 30" fill="none" xmlns="http://www.w3.org/2000/svg">
<path d="M19.3019 17.7921C20.4306 16.4258 21.1435 14.6733 21.1435 12.7426C21.1435 8.40599 17.6088 4.87134 13.2722 4.87134C8.93553 4.87134 5.40088 8.40599 5.40088 12.7426C5.40088 17.0793 8.93553 20.6139 13.2722 20.6139C15.1732 20.6139 16.9553 19.9307 18.3217 18.7723L24.4405 24.8911C24.589 25.0397 24.7672 25.0991 24.9454 25.0991C25.1237 25.0991 25.3019 25.0397 25.4504 24.8911C25.7177 24.6238 25.7177 24.1486 25.4504 23.8812L19.3019 17.7921ZM13.2425 19.1882C9.67811 19.1882 6.79692 16.307 6.79692 12.7426C6.79692 9.17827 9.67811 6.29708 13.2425 6.29708C16.8068 6.29708 19.688 9.17827 19.688 12.7426C19.688 16.307 16.8068 19.1882 13.2425 19.1882Z" fill="black"/>
</svg>
